<?xml version="1.0" encoding="UTF-8"?>
<svg version="1.1" viewBox="0 0 1600 904" width="1280" height="1280" xmlns="http://www.w3.org/2000/svg">
<path transform="translate(474 99.6)" d="m0 0c1.16-0.00466 2.32-0.00932 3.51-0.0141 3.21-0.00986 6.41-0.00639 9.62 0.00283 3.49 0.00673 6.98-0.00397 10.5-0.0124 6.12-0.0124 12.2-0.0136 18.3-0.00745 9.09 0.0091 18.2 0.00106 27.3-0.0103 16.2-0.0197 32.5-0.022 48.7-0.0168 14.2 0.00456 28.4 0.00396 42.7-0.00184 1.91-7.57e-4 3.81-0.00151 5.72-0.00227 2.87-0.00115 5.75-0.0023 8.62-0.00346 26.7-0.0107 53.4-0.0154 80.2-0.00753 1.01 2.97e-4 2.01 5.94e-4 3.05 9.01e-4 8.18 0.00245 16.4 0.00506 24.5 0.00768 31.9 0.0101 63.8 0.00175 95.7-0.0215 35.8-0.0261 71.7-0.0389 108-0.0318 3.82 7.16e-4 7.64 0.00139 11.5 0.00204 0.941 1.7e-4 1.88 3.4e-4 2.85 5.15e-4 14.2 0.0023 28.4-0.00567 42.6-0.0188 16.2-0.0149 32.3-0.0158 48.5 0.00207 9.04 0.00957 18.1 0.00812 27.1-0.00923 6.04-0.0105 12.1-0.00639 18.1 0.00948 3.44 0.00863 6.88 0.0111 10.3-0.00427 3.71-0.0131 7.42-0.00161 11.1 0.016 1.06-0.00965 2.12-0.0193 3.21-0.0292 12 0.117 21.6 3.99 30.9 11.5 0.625 0.477 1.25 0.954 1.89 1.45 7.53 6.49 12.8 17.8 14.1 27.6 0.143 3.33 0.138 6.67 0.131 10 0.00308 1.51 0.00308 1.51 0.00622 3.06 0.00567 3.39 0.00421 6.79 0.00279 10.2 0.00258 2.45 0.0056 4.9 9e-3 7.36 0.00723 6.04 0.00977 12.1 0.0103 18.1 9.14e-4 7.24 0.00758 14.5 0.0143 21.7 0.0161 17.5 0.022 35 0.0267 52.5 0.00234 8.27 0.00594 16.5 0.0097 24.8 0.0128 28.3 0.0236 56.6 0.027 85 2.22e-4 1.78 4.43e-4 3.56 6.65e-4 5.33 2.21e-4 1.78 4.41e-4 3.56 6.61e-4 5.35 4.43e-4 3.58 8.9e-4 7.15 0.00134 10.7 1.09e-4 0.886 2.19e-4 1.77 3.31e-4 2.69 0.00363 28.7 0.0196 57.5 0.0429 86.2 0.0246 30.4 0.0383 60.8 0.0395 91.2 1.71e-4 3.34 3.87e-4 6.67 6.34e-4 10 5.58e-5 0.821 1.12e-4 1.64 1.69e-4 2.49 0.00115 13.2 0.0122 26.4 0.0267 39.7 0.0144 13.3 0.0176 26.6 0.00956 39.9-0.00446 7.89-5.9e-4 15.8 0.0152 23.7 0.0109 5.89 0.00611 11.8-0.00477 17.7-0.00196 2.38 0.00115 4.77 0.00984 7.15 0.0111 3.24 0.00363 6.48-0.00839 9.72 0.0076 0.927 0.0152 1.85 0.023 2.81-0.102 12.7-5.05 23.1-13.6 32.4-12.2 11.4-26.3 13.4-42.2 13.4-1.14 0.00175-2.27 0.00351-3.44 0.00531-3.81 0.00466-7.63 0.00219-11.4-2.34e-4 -2.76 0.00132-5.52 0.00413-8.27 0.00687-6 0.00515-12 0.00657-18 0.00554-8.92-0.00153-17.8 0.00264-26.8 0.00787-16.9 0.00967-33.7 0.0125-50.6 0.0131-13 4.59e-4 -26 0.00252-39.1 0.0057-3.75 8.98e-4 -7.5 0.00179-11.2 0.00267-0.932 2.21e-4 -1.86 4.42e-4 -2.82 6.7e-4 -26.2 0.00615-52.4 0.0101-78.6 0.00966-0.988-1.56e-5 -1.98-3.12e-5 -3-4.72e-5 -5.01-8.31e-5 -10-1.82e-4 -15-2.85e-4 -0.995-1.99e-5 -1.99-3.99e-5 -3.01-6.04e-5 -2.01-4.04e-5 -4.02-8.22e-5 -6.04-1.25e-4 -31.3-6.13e-4 -62.6 0.00689-93.9 0.0206-35.2 0.0154-70.3 0.024-106 0.023-3.75-7.46e-5 -7.5-1.23e-4 -11.2-1.54e-4 -0.923-1.17e-5 -1.85-2.33e-5 -2.8-3.53e-5 -14.9-3.08e-5 -29.7 0.00636-44.6 0.015-14.9 0.00848-29.9 0.00947-44.8 0.00289-8.87-0.0037-17.7-0.00186-26.6 0.00794-5.93 6e-3 -11.9 0.00471-17.8-0.00247-3.38-0.00388-6.75-0.00355-10.1 0.00346-3.64 0.00706-7.29 0.00177-10.9-0.00656-1.04 0.00497-2.08 0.00994-3.15 0.0151-15.4-0.0742-28.7-3.18-40.2-13.9-10.5-11.4-13.9-23.7-13.8-38.8-0.00321-1.01-0.00641-2.01-0.00972-3.05-0.00828-3.36-0.00238-6.72 0.0035-10.1-0.00302-2.44-0.00691-4.88-0.0116-7.31-0.00814-5.3-0.0101-10.6-0.0065-15.9 0.00531-7.88-7.96e-4 -15.8-0.00908-23.6-0.0152-14.9-0.0169-29.8-0.0145-44.7 0.00183-11.5 7.22e-5 -23-0.00422-34.5-6.02e-4 -1.65-0.0012-3.3-0.0018-4.96-9.07e-4 -2.49-0.00182-4.98-0.00273-7.47-0.00843-23.1-0.0128-46.3-0.00859-69.4 1.56e-4 -0.872 3.13e-4 -1.74 4.74e-4 -2.64 8.06e-4 -4.42 0.00165-8.84 0.00251-13.3 1.71e-4 -0.878 3.42e-4 -1.76 5.18e-4 -2.66 3.47e-4 -1.78 6.95e-4 -3.55 0.00105-5.33 0.00536-27.6-0.00257-55.3-0.021-82.9-0.0207-31-0.0314-62.1-0.0274-93.1 3.95e-4 -3.31 7.57e-4 -6.62 0.0011-9.93 9.07e-5 -0.815 1.81e-4 -1.63 2.75e-4 -2.47 0.00117-12.3-0.00548-24.6-0.0161-36.9-0.0121-14-0.0136-28-0.00121-42 0.00663-7.83 5e-3 -15.7-0.00859-23.5-0.00922-5.85-0.00272-11.7 0.00985-17.5 0.00265-2.36 2.55e-4 -4.73-0.00774-7.09-0.0573-18.2 0.513-33.2 13.6-47.1 10.7-10.2 22.1-13.7 36.6-13.6zm-27.1 31c-5.47 7.72-6.29 16.2-6.2 25.4-0.00412 1.16-0.00825 2.32-0.0125 3.52-0.00733 3.19 0.00308 6.38 0.0213 9.57 0.0153 3.45 0.00733 6.9 0.00231 10.4-0.0062 6.74 0.00871 13.5 0.0307 20.2 0.0248 7.85 0.0276 15.7 0.0294 23.6 0.00387 14 0.0263 28 0.0598 42 0.0325 13.6 0.0537 27.2 0.0615 40.8 4.85e-4 0.839 9.71e-4 1.68 0.00147 2.54 0.00193 3.37 0.00384 6.74 0.00572 10.1 0.00752 13 0.0231 25.9 0.0405 38.9 0.00524 3.92 0.0102 7.83 0.0144 11.7 0.00891 8.23 0.0206 16.5 0.0416 24.7 0.00862 3.4 0.0157 6.81 0.0185 10.2 0.00396 3.68 0.014 7.36 0.0259 11-1.84e-4 1.09-3.69e-4 2.17-5.59e-4 3.29 0.00446 0.978 0.00892 1.96 0.0135 2.96 0.00179 0.85 0.00358 1.7 0.00542 2.58-0.0822 1.93-0.0822 1.93 1.13 2.92 3.08 0.098 6.15 0.13 9.23 0.12 1.47 0.00128 1.47 0.00128 2.97 0.00259 3.31 0.00166 6.63-0.00387 9.94-0.00932 2.36-2.82e-4 4.73-1.24e-4 7.09 4.43e-4 5.77 2.58e-4 11.5-0.00409 17.3-0.0104 6.71-0.00713 13.4-0.00864 20.1-0.00979 12-0.00219 23.9-0.00885 35.9-0.0183 11.6-0.00917 23.3-0.0163 34.9-0.0205 0.717-2.63e-4 1.43-5.25e-4 2.17-7.96e-4 3.59-0.0013 7.19-0.00257 10.8-0.00381 29.8-0.0104 59.7-0.0281 89.5-0.0503 1.62 5.1 3.23 10.2 4.85 15.3 0.547 1.73 1.09 3.46 1.64 5.18 4.67 14.7 9.21 29.5 13.7 44.3 0.652 2.34 0.652 2.34 2.86 3.17 2.39-14.5 4.77-29 7.14-43.4 0.328-2 0.657-4.01 0.985-6.01 2.12-12.9 4.17-25.9 6.16-38.9 1.65-10.7 3.31-21.4 4.97-32.2 0.29-1.87 0.29-1.87 0.585-3.78 2.98-19.2 6.04-38.5 9.16-57.7 3.28-20.3 6.42-40.5 9.52-60.8 2.71-17.7 5.45-35.4 8.36-53.1 1.38-8.39 2.71-16.8 4.01-25.2 0.161-1.04 0.321-2.08 0.487-3.15 0.791-5.12 1.58-10.2 2.36-15.4 0.284-1.85 0.568-3.69 0.853-5.54 0.129-0.851 0.258-1.7 0.391-2.58 0.493-3.19 1-6.19 2.03-9.26 0.111 0.649 0.222 1.3 0.337 1.97 1.35 7.86 2.69 15.7 4.04 23.6 0.246 1.43 0.492 2.87 0.738 4.3 2.97 17.3 5.95 34.6 8.97 51.9 0.126 0.721 0.252 1.44 0.381 2.18 0.507 2.9 1.01 5.8 1.52 8.71 4.08 23.4 8.11 46.7 12 70.1 3.44 20.8 6.98 41.6 10.5 62.4 0.14 0.82 0.281 1.64 0.425 2.49 3.74 21.9 7.51 43.7 11.3 65.6 4.67 26.9 9.22 53.9 13.8 80.8 0.251 1.49 0.502 2.97 0.752 4.46 0.391 2.32 0.782 4.63 1.17 6.95 0.668 3.95 1.34 7.91 2 11.9 0.133 0.784 0.265 1.57 0.402 2.38 0.267 1.58 0.534 3.16 0.801 4.74 0.769 4.55 1.54 9.1 2.3 13.7 3.15 18.7 6.33 37.3 9.56 56h2c4.68-25.6 9.06-51.2 13.2-76.8 1.45-9.01 2.92-18 4.38-27 0.333-2.05 0.666-4.1 0.999-6.15 3.38-20.8 6.82-41.6 10.3-62.4 0.272-1.63 0.544-3.26 0.817-4.89 1.42-8.48 2.84-17 4.26-25.5 1.92-11.4 3.83-22.9 5.74-34.3 0.177-1.06 0.355-2.13 0.538-3.22 4.01-24.1 7.96-48.1 11.9-72.2 1.28-7.8 2.55-15.6 3.83-23.4 0.838-5.11 1.67-10.2 2.51-15.3 0.395-2.41 0.791-4.82 1.19-7.23 0.546-3.32 1.09-6.65 1.63-9.97 0.16-0.973 0.32-1.95 0.485-2.95 0.796-4.87 1.55-9.74 2.23-14.6 3.38 21 6.46 42.1 9.28 63.2 0.84 6.28 1.69 12.6 2.53 18.8 0.138 1.02 0.138 1.02 0.279 2.06 1.39 10.3 2.88 20.6 4.42 30.9 1.22 8.13 2.38 16.3 3.52 24.4 0.167 1.2 0.335 2.4 0.507 3.64 0.679 4.87 1.36 9.75 2.03 14.6 0.506 3.64 1.01 7.29 1.52 10.9 0.147 1.06 0.294 2.13 0.445 3.22 0.937 6.71 1.96 13.4 3.02 20.1 0.208 1.31 0.208 1.31 0.42 2.65 0.339 2.14 0.678 4.28 1.02 6.41 28.8 0.0228 57.5 0.0405 86.3 0.0511 3.39 0.00125 6.79 0.00255 10.2 0.00387 1.01 3.93e-4 1.01 3.93e-4 2.05 7.95e-4 11 0.00436 21.9 0.0122 32.9 0.0214 11.2 0.00934 22.5 0.0148 33.7 0.0169 6.31 0.00131 12.6 0.0044 18.9 0.0116 5.93 0.00676 11.9 0.00889 17.8 0.00738 2.18 2.77e-4 4.37 0.00228 6.55 0.0061 2.97 0.00493 5.94 0.00379 8.91 0.00105 1.31 0.00437 1.31 0.00437 2.66 0.00883 3.83 0.367 3.83 0.367 7.04-1.13 0.0986-1.49 0.127-2.98 0.129-4.47 0.00322-0.972 0.00645-1.94 0.00977-2.94-0.00232-1.62-0.00232-1.62-0.00469-3.27 0.00227-1.14 0.00453-2.28 0.00687-3.45 0.00526-3.17 0.00598-6.35 0.00481-9.52-2.03e-4 -3.42 0.00531-6.83 0.0101-10.3 0.00832-6.7 0.0111-13.4 0.0116-20.1 4.75e-4 -5.45 0.00253-10.9 0.0057-16.3 0.00881-15.4 0.0134-30.9 0.0127-46.3-4e-5 -0.833-7.99e-5 -1.67-1.21e-4 -2.53-4.09e-5 -0.834-8.18e-5 -1.67-1.24e-4 -2.53-4.06e-4 -13.5 0.00915-27 0.0233-40.5 0.0144-13.9 0.0213-27.7 0.0204-41.6-3.32e-4 -7.79 0.00241-15.6 0.0132-23.4 0.00911-6.63 0.0113-13.3 0.00449-19.9-0.00326-3.38-0.00225-6.77 0.00535-10.1 0.00771-3.67 0.00308-7.35-0.00463-11 0.00772-1.59 0.00772-1.59 0.0156-3.22-0.0495-10.7-1.5-19.6-9.16-27.4-6.67-6.08-12.9-9.17-22-9.18-1.46-0.00452-1.46-0.00452-2.95-0.00914-1.06 0.00177-2.13 0.00354-3.23 0.00536-1.71-0.00308-1.71-0.00308-3.45-0.00622-3.17-0.00469-6.35-0.00489-9.52-0.00322-3.45 7.31e-4 -6.9-0.00429-10.3-0.00858-6.84-0.00758-13.7-0.00977-20.5-0.0103-8.2-9.13e-4 -16.4-0.00758-24.6-0.0143-19.8-0.0161-39.6-0.022-59.4-0.0267-9.37-0.00234-18.7-0.00594-28.1-0.0097-32.1-0.0128-64.1-0.0236-96.2-0.027-2.01-2.22e-4 -4.03-4.43e-4 -6.04-6.65e-4 -2.02-2.21e-4 -4.04-4.41e-4 -6.05-6.61e-4 -4.05-4.43e-4 -8.1-8.9e-4 -12.1-0.00134-1.51-1.64e-4 -1.51-1.64e-4 -3.04-3.31e-4 -32.6-0.00363-65.1-0.0196-97.7-0.0429-34.4-0.0246-68.8-0.0383-103-0.0395-3.78-1.71e-4 -7.55-3.87e-4 -11.3-6.34e-4 -1.39-8.37e-5 -1.39-8.37e-5 -2.82-1.69e-4 -15-0.00115-29.9-0.0122-44.9-0.0267-15-0.0144-30.1-0.0176-45.1-0.00956-8.94 0.00446-17.9 5.69e-4 -26.8-0.0152-5.97-0.00973-11.9-0.00859-17.9 0.00144-3.4 0.00541-6.81 0.00606-10.2-0.00651-3.67-0.011-7.33-0.00366-11 0.00839-1.06-0.0076-2.11-0.0152-3.2-0.023-11.4 0.0813-20.2 4.05-27.6 13zm315 118c-1.65 7.89-3.01 15.8-4.32 23.8-0.222 1.34-0.443 2.68-0.665 4.02-0.593 3.59-1.18 7.18-1.77 10.8-0.371 2.26-0.742 4.52-1.11 6.78-3.35 20.4-6.56 40.8-9.6 61.2-2.85 19.2-5.91 38.3-9.03 57.4-3.48 21.3-6.85 42.7-10 64.1-3.17 21.3-6.63 42.5-10.1 63.8-0.206 1.25-0.412 2.49-0.625 3.78-0.383 2.31-0.767 4.62-1.15 6.94-1.24 7.47-2.41 14.9-3.55 22.4-0.203-0.653-0.405-1.31-0.614-1.98-2.63-8.47-5.25-16.9-7.89-25.4-0.213-0.684-0.425-1.37-0.645-2.07-6.79-21.8-13.7-43.6-20.7-65.4-0.312-0.969-0.624-1.94-0.946-2.94-0.564-1.75-1.13-3.5-1.7-5.25-2.67-8.29-5.06-16.6-7.52-25h-228c-0.117 50.6-0.117 50.6-0.195 101-0.00783 6.82-0.0159 13.6-0.0244 20.5-0.00105 0.855-0.00211 1.71-0.0032 2.59-0.0174 13.8-0.0489 27.6-0.0857 41.4-0.0374 14.2-0.0596 28.3-0.0677 42.5-0.00548 8.74-0.0228 17.5-0.0553 26.2-0.0212 5.99-0.0275 12-0.0223 18 0.00256 3.46-0.00131 6.91-0.0228 10.4-0.0199 3.75-0.0151 7.51-0.0042 11.3-0.0117 1.08-0.0233 2.17-0.0353 3.28 0.0627 8 1.65 14.8 6.38 21.4 6.28 5.94 12.9 10.5 21.8 10.5 0.974 0.00378 1.95 0.00757 2.95 0.0115 1.07-9.12e-4 2.15-0.00182 3.26-0.00276 1.71 0.00443 1.71 0.00443 3.46 0.00894 3.19 0.0072 6.38 0.0099 9.57 0.0107 3.46 0.00197 6.93 0.00964 10.4 0.0166 6.88 0.0128 13.8 0.0202 20.6 0.0259 8.24 0.00705 16.5 0.0198 24.7 0.0325 20.9 0.0319 41.7 0.0517 62.6 0.0693 5.65 0.00477 11.3 0.00978 17 0.0148 35.1 0.031 70.1 0.0577 105 0.0744 8.13 0.00394 16.3 0.00795 24.4 0.012 1.51 7.53e-4 1.51 7.53e-4 3.06 0.00152 32.7 0.0164 65.5 0.0549 98.2 0.106 33.6 0.0522 67.3 0.085 101 0.0923 4.75 0.00103 9.5 0.00226 14.3 0.00362 0.935 2.58e-4 1.87 5.16e-4 2.83 7.82e-4 15.1 0.0047 30.1 0.0296 45.2 0.062 15.1 0.032 30.3 0.042 45.4 0.0296 8.99-0.00674 18 0.00321 27 0.0371 6.01 0.021 12 0.0202 18 0.00167 3.42-0.00991 6.84-0.0105 10.3 0.0157 3.69 0.0231 7.38 0.00917 11.1-0.0139 1.58 0.0232 1.58 0.0232 3.19 0.0469 9.61-0.133 18.1-3.59 24.8-10.5 6.27-8.06 7.59-16.3 7.48-26.3 0.00342-1.17 0.00684-2.34 0.0104-3.55 0.00542-3.23-0.00696-6.45-0.0271-9.68-0.0174-3.49-0.0114-6.98-0.00839-10.5 0.00209-6.04-0.0104-12.1-0.033-18.1-0.0326-8.73-0.0429-17.5-0.048-26.2-0.00874-14.2-0.0353-28.3-0.0732-42.5-0.0367-13.8-0.065-27.5-0.082-41.3-0.00107-0.857-0.00214-1.71-0.00325-2.6-0.00832-6.71-0.0161-13.4-0.0238-20.1-0.0377-32.8-0.118-65.7-0.193-98.5h-243c-0.33-4.29-0.66-8.58-1-13-0.335-2.91-0.687-5.8-1.09-8.69-0.104-0.769-0.208-1.54-0.316-2.33-0.338-2.49-0.682-4.98-1.03-7.46-0.241-1.76-0.481-3.51-0.721-5.27-0.501-3.66-1-7.31-1.51-11-0.646-4.67-1.28-9.34-1.92-14-0.494-3.62-0.991-7.23-1.49-10.8-0.237-1.72-0.473-3.44-0.707-5.16-0.328-2.41-0.662-4.81-0.997-7.22-0.141-1.05-0.141-1.05-0.285-2.12-0.67-4.75-1.71-9.29-2.94-13.9h-1c-0.111 0.667-0.222 1.33-0.337 2.02-5.95 35.7-11.9 71.4-17.9 107-0.123 0.739-0.246 1.48-0.373 2.24-0.244 1.47-0.489 2.93-0.733 4.4-0.587 3.52-1.17 7.05-1.76 10.6-1.01 6.05-2.02 12.1-3.03 18.2-2.15 12.9-4.27 25.7-6.37 38.6-0.969 5.93-1.94 11.9-2.91 17.8-0.208 1.27-0.416 2.54-0.63 3.85-6.98 42.7-14 85.3-21.1 128-1.33 7.94-2.65 15.9-3.97 23.8-0.624 3.74-1.25 7.49-1.87 11.2-0.301 1.8-0.301 1.8-0.607 3.64-0.14 0.839-0.28 1.68-0.424 2.54-1.52-4.26-2.53-8.39-3.3-12.8-0.179-1.03-0.179-1.03-0.362-2.07-0.407-2.34-0.808-4.68-1.21-7.02-0.3-1.73-0.599-3.47-0.899-5.2-4.77-27.6-9.4-55.3-14.1-83-1.98-11.7-3.96-23.5-5.94-35.2-0.77-4.56-1.54-9.12-2.31-13.7-2.54-15-5.14-30-7.77-45-3.19-18.2-6.3-36.3-9.4-54.5-0.445-2.61-0.89-5.22-1.34-7.83-4.54-26.6-9.05-53.2-13.5-79.9-3.29-19.5-6.63-39.1-10.1-58.6-1.73-9.87-3.4-19.7-5-29.6-0.368-2.26-0.736-4.51-1.1-6.77-0.706-4.33-1.4-8.66-2.09-13-0.316-1.94-0.632-3.89-0.948-5.83-0.209-1.35-0.209-1.35-0.422-2.72-0.347-2.1-0.785-4.18-1.24-6.26-0.66-0.33-1.32-0.66-2-1z" fill="#FFD700"/>
</svg>
